<mxfile host="Electron" agent="Mozilla/5.0 (Macintosh; Intel Mac OS X 10_15_7) AppleWebKit/537.36 (KHTML, like Gecko) draw.io/26.0.9 Chrome/128.0.6613.186 Electron/32.2.5 Safari/537.36" version="26.0.9">
  <diagram name="第 1 页" id="87z6VcFORobccVeiUr0X">
    <mxGraphModel dx="1592" dy="969" grid="1" gridSize="10" guides="1" tooltips="1" connect="1" arrows="1" fold="1" page="1" pageScale="1" pageWidth="827" pageHeight="1169" math="0" shadow="0">
      <root>
        <mxCell id="0" />
        <mxCell id="1" parent="0" />
        <mxCell id="p07UVuY639C_de6FHWED-1" style="edgeStyle=orthogonalEdgeStyle;rounded=0;orthogonalLoop=1;jettySize=auto;html=1;exitX=0.5;exitY=1;exitDx=0;exitDy=0;entryX=0.5;entryY=0;entryDx=0;entryDy=0;" edge="1" parent="1" source="p07UVuY639C_de6FHWED-3" target="p07UVuY639C_de6FHWED-19">
          <mxGeometry relative="1" as="geometry" />
        </mxCell>
        <mxCell id="p07UVuY639C_de6FHWED-2" value="execute()" style="edgeLabel;html=1;align=center;verticalAlign=middle;resizable=0;points=[];" vertex="1" connectable="0" parent="p07UVuY639C_de6FHWED-1">
          <mxGeometry x="-0.1183" y="1" relative="1" as="geometry">
            <mxPoint as="offset" />
          </mxGeometry>
        </mxCell>
        <mxCell id="p07UVuY639C_de6FHWED-3" value="&lt;div style=&quot;background-color: rgb(255, 255, 255); color: rgb(8, 8, 8);&quot;&gt;&lt;pre style=&quot;font-family:&#39;JetBrains Mono&#39;,monospace;font-size:9.8pt;&quot;&gt;&lt;br&gt;&lt;/pre&gt;&lt;/div&gt;" style="rounded=0;whiteSpace=wrap;html=1;fillColor=#cce5ff;strokeColor=#36393d;" vertex="1" parent="1">
          <mxGeometry x="624" y="167" width="276" height="180" as="geometry" />
        </mxCell>
        <mxCell id="p07UVuY639C_de6FHWED-4" style="edgeStyle=orthogonalEdgeStyle;rounded=0;orthogonalLoop=1;jettySize=auto;html=1;exitX=0.5;exitY=1;exitDx=0;exitDy=0;entryX=0.5;entryY=0;entryDx=0;entryDy=0;" edge="1" parent="1" source="p07UVuY639C_de6FHWED-6" target="p07UVuY639C_de6FHWED-9">
          <mxGeometry relative="1" as="geometry" />
        </mxCell>
        <mxCell id="p07UVuY639C_de6FHWED-5" value="指定目标类名和方法名" style="edgeLabel;html=1;align=center;verticalAlign=middle;resizable=0;points=[];" vertex="1" connectable="0" parent="p07UVuY639C_de6FHWED-4">
          <mxGeometry x="-0.1556" y="2" relative="1" as="geometry">
            <mxPoint as="offset" />
          </mxGeometry>
        </mxCell>
        <mxCell id="p07UVuY639C_de6FHWED-6" value="&lt;div style=&quot;background-color: rgb(255, 255, 255); color: rgb(8, 8, 8);&quot;&gt;&lt;pre style=&quot;font-family: &amp;quot;JetBrains Mono&amp;quot;, monospace; font-size: 9.8pt;&quot;&gt;ModuleLifecycle&lt;br&gt;onActive()&lt;/pre&gt;&lt;/div&gt;" style="rounded=0;whiteSpace=wrap;html=1;" vertex="1" parent="1">
          <mxGeometry x="270" y="90" width="150" height="50" as="geometry" />
        </mxCell>
        <mxCell id="p07UVuY639C_de6FHWED-7" style="edgeStyle=orthogonalEdgeStyle;rounded=0;orthogonalLoop=1;jettySize=auto;html=1;exitX=1;exitY=0.5;exitDx=0;exitDy=0;entryX=0;entryY=0.5;entryDx=0;entryDy=0;" edge="1" parent="1" source="p07UVuY639C_de6FHWED-9" target="p07UVuY639C_de6FHWED-3">
          <mxGeometry relative="1" as="geometry" />
        </mxCell>
        <mxCell id="p07UVuY639C_de6FHWED-8" value="构建类匹配器和方法匹配器&lt;br&gt;业务对象" style="edgeLabel;html=1;align=center;verticalAlign=middle;resizable=0;points=[];" vertex="1" connectable="0" parent="p07UVuY639C_de6FHWED-7">
          <mxGeometry relative="1" as="geometry">
            <mxPoint as="offset" />
          </mxGeometry>
        </mxCell>
        <mxCell id="p07UVuY639C_de6FHWED-9" value="EnhanceTemplate&lt;div&gt;enhance()&lt;/div&gt;" style="rounded=0;whiteSpace=wrap;html=1;" vertex="1" parent="1">
          <mxGeometry x="285" y="230" width="120" height="60" as="geometry" />
        </mxCell>
        <mxCell id="p07UVuY639C_de6FHWED-10" value="&lt;div style=&quot;background-color: rgb(255, 255, 255); color: rgb(8, 8, 8);&quot;&gt;&lt;pre style=&quot;font-family:&#39;JetBrains Mono&#39;,monospace;font-size:9.8pt;&quot;&gt;&lt;br&gt;&lt;/pre&gt;&lt;/div&gt;" style="rounded=0;whiteSpace=wrap;html=1;fillColor=#ffcc99;strokeColor=#36393d;" vertex="1" parent="1">
          <mxGeometry x="640.25" y="210" width="243.5" height="117" as="geometry" />
        </mxCell>
        <mxCell id="p07UVuY639C_de6FHWED-11" value="&lt;div style=&quot;color: rgb(8, 8, 8);&quot;&gt;&lt;pre style=&quot;font-family: &amp;quot;JetBrains Mono&amp;quot;, monospace; font-size: 9.8pt;&quot;&gt;&lt;span style=&quot;color: rgb(0, 0, 0);&quot;&gt;DefaultInstrumentClass&lt;/span&gt;&lt;/pre&gt;&lt;/div&gt;" style="text;html=1;align=center;verticalAlign=middle;resizable=0;points=[];autosize=1;strokeColor=none;fillColor=none;" vertex="1" parent="1">
          <mxGeometry x="620" y="150" width="200" height="60" as="geometry" />
        </mxCell>
        <mxCell id="p07UVuY639C_de6FHWED-12" value="&lt;div style=&quot;background-color: rgb(255, 255, 255); color: rgb(8, 8, 8);&quot;&gt;&lt;pre style=&quot;font-family:&#39;JetBrains Mono&#39;,monospace;font-size:9.8pt;&quot;&gt;&lt;br&gt;&lt;/pre&gt;&lt;/div&gt;" style="text;html=1;align=center;verticalAlign=middle;resizable=0;points=[];autosize=1;strokeColor=none;fillColor=none;" vertex="1" parent="1">
          <mxGeometry x="710" y="855" width="20" height="60" as="geometry" />
        </mxCell>
        <mxCell id="p07UVuY639C_de6FHWED-13" value="&lt;font style=&quot;color: rgb(0, 0, 255);&quot;&gt;每一个Module都实现了ModuleLifecycle接口，探针完成模块加载后，会调用每个模块的onActive()方法，完成类增强的功能&lt;/font&gt;" style="text;html=1;align=center;verticalAlign=middle;whiteSpace=wrap;rounded=0;" vertex="1" parent="1">
          <mxGeometry x="180" y="30" width="360" height="70" as="geometry" />
        </mxCell>
        <mxCell id="p07UVuY639C_de6FHWED-14" value="&lt;pre style=&quot;color: rgb(8, 8, 8); font-family: &amp;quot;JetBrains Mono&amp;quot;, monospace; font-size: 9.8pt;&quot;&gt;&lt;span style=&quot;color: rgb(0, 0, 0);&quot;&gt;ClassMatchBuilder(类匹配)&lt;/span&gt;&lt;/pre&gt;" style="text;html=1;align=center;verticalAlign=middle;resizable=0;points=[];autosize=1;strokeColor=none;fillColor=none;" vertex="1" parent="1">
          <mxGeometry x="640.25" y="197" width="210" height="60" as="geometry" />
        </mxCell>
        <mxCell id="p07UVuY639C_de6FHWED-15" value="&lt;div style=&quot;color: rgb(8, 8, 8);&quot;&gt;&lt;pre style=&quot;font-family: &amp;quot;JetBrains Mono&amp;quot;, monospace; font-size: 9.8pt;&quot;&gt;&lt;span&gt;BehaviorMatchBuilderList&lt;/span&gt;&lt;/pre&gt;&lt;/div&gt;" style="rounded=0;whiteSpace=wrap;html=1;fillColor=#d5e8d4;strokeColor=#82b366;" vertex="1" parent="1">
          <mxGeometry x="662" y="257" width="200" height="20" as="geometry" />
        </mxCell>
        <mxCell id="p07UVuY639C_de6FHWED-16" value="&lt;div style=&quot;background-color: rgb(255, 255, 255); color: rgb(8, 8, 8);&quot;&gt;&lt;pre style=&quot;font-family:&#39;JetBrains Mono&#39;,monospace;font-size:9.8pt;&quot;&gt;&lt;br&gt;&lt;/pre&gt;&lt;/div&gt;" style="rounded=0;whiteSpace=wrap;html=1;fillColor=#d5e8d4;strokeColor=#82b366;" vertex="1" parent="1">
          <mxGeometry x="662" y="277" width="200" height="20" as="geometry" />
        </mxCell>
        <mxCell id="p07UVuY639C_de6FHWED-17" value="&lt;div style=&quot;background-color: rgb(255, 255, 255); color: rgb(8, 8, 8);&quot;&gt;&lt;pre style=&quot;font-family:&#39;JetBrains Mono&#39;,monospace;font-size:9.8pt;&quot;&gt;&lt;br&gt;&lt;/pre&gt;&lt;/div&gt;" style="rounded=0;whiteSpace=wrap;html=1;fillColor=#d5e8d4;strokeColor=#82b366;" vertex="1" parent="1">
          <mxGeometry x="662" y="297" width="200" height="20" as="geometry" />
        </mxCell>
        <mxCell id="p07UVuY639C_de6FHWED-18" style="edgeStyle=orthogonalEdgeStyle;rounded=0;orthogonalLoop=1;jettySize=auto;html=1;exitX=0.5;exitY=1;exitDx=0;exitDy=0;entryX=0.5;entryY=0;entryDx=0;entryDy=0;" edge="1" parent="1" source="p07UVuY639C_de6FHWED-19" target="p07UVuY639C_de6FHWED-21">
          <mxGeometry relative="1" as="geometry" />
        </mxCell>
        <mxCell id="p07UVuY639C_de6FHWED-19" value="&lt;pre style=&quot;color: rgb(8, 8, 8); font-family: &amp;quot;JetBrains Mono&amp;quot;, monospace; font-size: 9.8pt;&quot;&gt;&lt;span style=&quot;color: rgb(0, 0, 0);&quot;&gt;ClassMatchBuilder&lt;br&gt;onWatch()&lt;/span&gt;&lt;/pre&gt;" style="rounded=0;whiteSpace=wrap;html=1;" vertex="1" parent="1">
          <mxGeometry x="649.5" y="440" width="225" height="60" as="geometry" />
        </mxCell>
        <mxCell id="p07UVuY639C_de6FHWED-20" style="edgeStyle=orthogonalEdgeStyle;rounded=0;orthogonalLoop=1;jettySize=auto;html=1;exitX=0.5;exitY=1;exitDx=0;exitDy=0;entryX=0.5;entryY=0;entryDx=0;entryDy=0;" edge="1" parent="1" source="p07UVuY639C_de6FHWED-21" target="p07UVuY639C_de6FHWED-22">
          <mxGeometry relative="1" as="geometry" />
        </mxCell>
        <mxCell id="p07UVuY639C_de6FHWED-21" value="&lt;pre style=&quot;font-family: &amp;quot;JetBrains Mono&amp;quot;, monospace; font-size: 9.8pt; color: rgb(8, 8, 8);&quot;&gt;DefaultModuleEventWatcher&lt;br/&gt;watch()&lt;/pre&gt;" style="rounded=0;whiteSpace=wrap;html=1;" vertex="1" parent="1">
          <mxGeometry x="649.5" y="570" width="225" height="60" as="geometry" />
        </mxCell>
        <mxCell id="p07UVuY639C_de6FHWED-22" value="&lt;pre style=&quot;color: rgb(8, 8, 8); font-family: &amp;quot;JetBrains Mono&amp;quot;, monospace; font-size: 9.8pt;&quot;&gt;&lt;span style=&quot;color: rgb(0, 0, 0);&quot;&gt;DefaultSimulatorClassFileTransformer&lt;br/&gt;transform()&lt;/span&gt;&lt;/pre&gt;" style="rounded=0;whiteSpace=wrap;html=1;" vertex="1" parent="1">
          <mxGeometry x="607" y="697.5" width="310" height="60" as="geometry" />
        </mxCell>
        <mxCell id="p07UVuY639C_de6FHWED-23" value="&lt;p style=&quot;font-family: &amp;quot;JetBrains Mono&amp;quot;, monospace; font-size: 9.8pt;&quot;&gt;&lt;font style=&quot;color: light-dark(rgb(0, 0, 204), rgb(8, 8, 8));&quot;&gt;每个&lt;span style=&quot;font-size: 9.8pt; white-space-collapse: collapse; font-style: italic;&quot;&gt;enhanceTemplate.enhance&lt;/span&gt;都是单独的一个&lt;span style=&quot;font-size: 9.8pt; white-space: normal; font-style: italic;&quot;&gt;transformer&lt;/span&gt;&lt;/font&gt;&lt;/p&gt;" style="text;html=1;align=left;verticalAlign=middle;whiteSpace=wrap;rounded=0;" vertex="1" parent="1">
          <mxGeometry x="364" y="697.5" width="220" height="45" as="geometry" />
        </mxCell>
        <mxCell id="p07UVuY639C_de6FHWED-24" value="&lt;div style=&quot;background-color: rgb(255, 255, 255); color: rgb(8, 8, 8);&quot;&gt;&lt;pre style=&quot;font-family:&#39;JetBrains Mono&#39;,monospace;font-size:9.8pt;&quot;&gt;&lt;span style=&quot;color: rgb(0, 51, 179);&quot;&gt;public &lt;/span&gt;&lt;span style=&quot;color: rgb(0, 0, 0);&quot;&gt;DruidPooledConnection &lt;/span&gt;&lt;span style=&quot;color: rgb(0, 98, 122);&quot;&gt;getConnection&lt;/span&gt;(&lt;span style=&quot;color: rgb(0, 51, 179);&quot;&gt;long &lt;/span&gt;&lt;span style=&quot;color: rgb(0, 0, 0);&quot;&gt;maxWaitMillis&lt;/span&gt;) &lt;span style=&quot;color: rgb(0, 51, 179);&quot;&gt;throws &lt;/span&gt;&lt;span style=&quot;color: rgb(0, 0, 0);&quot;&gt;SQLException &lt;/span&gt;{&lt;br&gt;    &lt;span style=&quot;color: rgb(0, 51, 179);&quot;&gt;int &lt;/span&gt;&lt;span style=&quot;color: rgb(0, 0, 0);&quot;&gt;executionTag &lt;/span&gt;= Messager.getExecutionTag(&lt;span style=&quot;color: rgb(23, 80, 235);&quot;&gt;2&lt;/span&gt;);&lt;br&gt;    &lt;span style=&quot;color: rgb(0, 51, 179);&quot;&gt;try &lt;/span&gt;{&lt;br&gt;        &lt;span style=&quot;color: rgb(140, 140, 140); font-style: italic;&quot;&gt;// Prepare arguments for the before hook&lt;br&gt;&lt;/span&gt;&lt;span style=&quot;color: rgb(140, 140, 140); font-style: italic;&quot;&gt;        &lt;/span&gt;&lt;span style=&quot;color: rgb(0, 0, 0);&quot;&gt;Object&lt;/span&gt;[] &lt;span style=&quot;color: rgb(0, 0, 0);&quot;&gt;objectArray &lt;/span&gt;= &lt;span style=&quot;color: rgb(0, 51, 179);&quot;&gt;new &lt;/span&gt;Object[&lt;span style=&quot;color: rgb(23, 80, 235);&quot;&gt;1&lt;/span&gt;];&lt;br&gt;        &lt;span style=&quot;color: rgb(0, 0, 0);&quot;&gt;objectArray&lt;/span&gt;[&lt;span style=&quot;color: rgb(23, 80, 235);&quot;&gt;0&lt;/span&gt;] = &lt;span style=&quot;color: rgb(0, 51, 179);&quot;&gt;new &lt;/span&gt;Long(&lt;span style=&quot;color: rgb(0, 0, 0);&quot;&gt;maxWaitMillis&lt;/span&gt;);&lt;br&gt;        Result &lt;span style=&quot;color: rgb(0, 0, 0);&quot;&gt;beforeResult &lt;/span&gt;= Messager.invokeOnBefore(args, &lt;span style=&quot;color: rgb(23, 80, 235);&quot;&gt;1691069119&lt;/span&gt;, &lt;span style=&quot;color: rgb(6, 125, 23);&quot;&gt;&quot;com.pamirs.attach.plugin.alibaba.druid.interceptor.DruidInjectGetConnectionInterceptor&quot;&lt;/span&gt;, &lt;span style=&quot;color: rgb(23, 80, 235);&quot;&gt;2&lt;/span&gt;, &lt;span style=&quot;color: rgb(0, 0, 0);&quot;&gt;executionTag&lt;/span&gt;, &lt;span style=&quot;color: rgb(0, 0, 0);&quot;&gt;DruidDataSource&lt;/span&gt;.&lt;span style=&quot;color: rgb(0, 51, 179);&quot;&gt;class&lt;/span&gt;, &lt;span style=&quot;color: rgb(6, 125, 23);&quot;&gt;&quot;getConnection&quot;&lt;/span&gt;, &lt;span style=&quot;color: rgb(6, 125, 23);&quot;&gt;&quot;(J)Lcom/alibaba/druid/pool/DruidPooledConnection;&quot;&lt;/span&gt;, &lt;span style=&quot;color: rgb(0, 51, 179);&quot;&gt;this&lt;/span&gt;);&lt;br&gt;&lt;br&gt;        &lt;span style=&quot;color: rgb(140, 140, 140); font-style: italic;&quot;&gt;// Update arguments from the before hook result&lt;br&gt;&lt;/span&gt;&lt;span style=&quot;color: rgb(140, 140, 140); font-style: italic;&quot;&gt;        &lt;/span&gt;&lt;span style=&quot;color: rgb(0, 0, 0);&quot;&gt;maxWaitMillis &lt;/span&gt;= ((&lt;span style=&quot;color: rgb(0, 0, 0);&quot;&gt;Number&lt;/span&gt;) &lt;span style=&quot;color: rgb(0, 0, 0);&quot;&gt;objectArray&lt;/span&gt;[&lt;span style=&quot;color: rgb(23, 80, 235);&quot;&gt;0&lt;/span&gt;]).longValue();&lt;br&gt;&lt;br&gt;        &lt;span style=&quot;color: rgb(140, 140, 140); font-style: italic;&quot;&gt;// Handle before hook result&lt;br&gt;&lt;/span&gt;&lt;span style=&quot;color: rgb(140, 140, 140); font-style: italic;&quot;&gt;        &lt;/span&gt;&lt;span style=&quot;color: rgb(0, 51, 179);&quot;&gt;if &lt;/span&gt;(&lt;span style=&quot;color: rgb(0, 0, 0);&quot;&gt;beforeResult&lt;/span&gt;.state == &lt;span style=&quot;color: rgb(23, 80, 235);&quot;&gt;1&lt;/span&gt;) {&lt;br&gt;            &lt;span style=&quot;color: rgb(0, 51, 179);&quot;&gt;return &lt;/span&gt;(&lt;span style=&quot;color: rgb(0, 0, 0);&quot;&gt;DruidPooledConnection&lt;/span&gt;) &lt;span style=&quot;color: rgb(0, 0, 0);&quot;&gt;beforeResult&lt;/span&gt;.result;&lt;br&gt;        } &lt;span style=&quot;color: rgb(0, 51, 179);&quot;&gt;else if &lt;/span&gt;(&lt;span style=&quot;color: rgb(0, 0, 0);&quot;&gt;beforeResult&lt;/span&gt;.state == &lt;span style=&quot;color: rgb(23, 80, 235);&quot;&gt;2&lt;/span&gt;) {&lt;br&gt;            &lt;span style=&quot;color: rgb(0, 51, 179);&quot;&gt;throw &lt;/span&gt;(&lt;span style=&quot;color: rgb(0, 0, 0);&quot;&gt;Throwable&lt;/span&gt;) &lt;span style=&quot;color: rgb(0, 0, 0);&quot;&gt;beforeResult&lt;/span&gt;.result;&lt;br&gt;        }&lt;br&gt;&lt;br&gt;        &lt;span style=&quot;color: rgb(140, 140, 140); font-style: italic;&quot;&gt;//bizCode&lt;br&gt;&lt;/span&gt;&lt;span style=&quot;color: rgb(140, 140, 140); font-style: italic;&quot;&gt;        &lt;/span&gt;&lt;span style=&quot;color: rgb(0, 0, 0);&quot;&gt;DruidPooledConnection connection &lt;/span&gt;= xxx;&lt;br&gt;&lt;br&gt;        &lt;span style=&quot;color: rgb(140, 140, 140); font-style: italic;&quot;&gt;// Handle return hook if executionTag is set&lt;br&gt;&lt;/span&gt;&lt;span style=&quot;color: rgb(140, 140, 140); font-style: italic;&quot;&gt;        &lt;/span&gt;&lt;span style=&quot;color: rgb(0, 51, 179);&quot;&gt;if &lt;/span&gt;(&lt;span style=&quot;color: rgb(0, 0, 0);&quot;&gt;executionTag &lt;/span&gt;!= &lt;span style=&quot;color: rgb(23, 80, 235);&quot;&gt;0&lt;/span&gt;) {&lt;br&gt;            Result &lt;span style=&quot;color: rgb(0, 0, 0);&quot;&gt;returnResult &lt;/span&gt;= Messager.invokeOnReturn(&lt;span style=&quot;color: rgb(0, 0, 0);&quot;&gt;connection&lt;/span&gt;, &lt;span style=&quot;color: rgb(0, 0, 0);&quot;&gt;DruidDataSource&lt;/span&gt;.&lt;span style=&quot;color: rgb(0, 51, 179);&quot;&gt;class&lt;/span&gt;, &lt;span style=&quot;color: rgb(23, 80, 235);&quot;&gt;1691069119&lt;/span&gt;, &lt;span style=&quot;color: rgb(6, 125, 23);&quot;&gt;&quot;com.pamirs.attach.plugin.alibaba.druid.interceptor.DruidInjectGetConnectionInterceptor&quot;&lt;/span&gt;, &lt;span style=&quot;color: rgb(23, 80, 235);&quot;&gt;2&lt;/span&gt;, &lt;span style=&quot;color: rgb(0, 0, 0);&quot;&gt;executionTag&lt;/span&gt;);&lt;br&gt;            &lt;span style=&quot;color: rgb(0, 51, 179);&quot;&gt;if &lt;/span&gt;(&lt;span style=&quot;color: rgb(0, 0, 0);&quot;&gt;returnResult&lt;/span&gt;.state == &lt;span style=&quot;color: rgb(23, 80, 235);&quot;&gt;1&lt;/span&gt;) {&lt;br&gt;                &lt;span style=&quot;color: rgb(0, 51, 179);&quot;&gt;return &lt;/span&gt;(&lt;span style=&quot;color: rgb(0, 0, 0);&quot;&gt;DruidPooledConnection&lt;/span&gt;) &lt;span style=&quot;color: rgb(0, 0, 0);&quot;&gt;returnResult&lt;/span&gt;.result;&lt;br&gt;            } &lt;span style=&quot;color: rgb(0, 51, 179);&quot;&gt;else if &lt;/span&gt;(&lt;span style=&quot;color: rgb(0, 0, 0);&quot;&gt;returnResult&lt;/span&gt;.state == &lt;span style=&quot;color: rgb(23, 80, 235);&quot;&gt;2&lt;/span&gt;) {&lt;br&gt;                &lt;span style=&quot;color: rgb(0, 51, 179);&quot;&gt;throw &lt;/span&gt;(&lt;span style=&quot;color: rgb(0, 0, 0);&quot;&gt;Throwable&lt;/span&gt;) &lt;span style=&quot;color: rgb(0, 0, 0);&quot;&gt;returnResult&lt;/span&gt;.result;&lt;br&gt;            }&lt;br&gt;        }&lt;br&gt;        &lt;span style=&quot;color: rgb(0, 51, 179);&quot;&gt;return &lt;/span&gt;&lt;span style=&quot;color: rgb(0, 0, 0);&quot;&gt;connection&lt;/span&gt;;&lt;br&gt;&lt;br&gt;    } &lt;span style=&quot;color: rgb(0, 51, 179);&quot;&gt;catch &lt;/span&gt;(&lt;span style=&quot;color: rgb(0, 0, 0);&quot;&gt;Throwable throwable&lt;/span&gt;) {&lt;br&gt;        &lt;span style=&quot;color: rgb(140, 140, 140); font-style: italic;&quot;&gt;// Handle exceptions and invoke the throws hook&lt;br&gt;&lt;/span&gt;&lt;span style=&quot;color: rgb(140, 140, 140); font-style: italic;&quot;&gt;        &lt;/span&gt;Result &lt;span style=&quot;color: rgb(0, 0, 0);&quot;&gt;throwsResult &lt;/span&gt;= Messager.invokeOnThrows(&lt;span style=&quot;color: rgb(0, 0, 0);&quot;&gt;throwable&lt;/span&gt;, &lt;span style=&quot;color: rgb(0, 0, 0);&quot;&gt;DruidDataSource&lt;/span&gt;.&lt;span style=&quot;color: rgb(0, 51, 179);&quot;&gt;class&lt;/span&gt;,&lt;span style=&quot;color: rgb(23, 80, 235);&quot;&gt;1691069119&lt;/span&gt;, &lt;span style=&quot;color: rgb(6, 125, 23);&quot;&gt;&quot;com.pamirs.attach.plugin.alibaba.druid.interceptor.DruidInjectGetConnectionInterceptor&quot;&lt;/span&gt;,&lt;span style=&quot;color: rgb(23, 80, 235);&quot;&gt;2&lt;/span&gt;, &lt;span style=&quot;color: rgb(0, 0, 0);&quot;&gt;executionTag&lt;/span&gt;);&lt;br&gt;        &lt;span style=&quot;color: rgb(0, 51, 179);&quot;&gt;if &lt;/span&gt;(&lt;span style=&quot;color: rgb(0, 0, 0);&quot;&gt;throwsResult&lt;/span&gt;.state == &lt;span style=&quot;color: rgb(23, 80, 235);&quot;&gt;1&lt;/span&gt;) {&lt;br&gt;            &lt;span style=&quot;color: rgb(0, 51, 179);&quot;&gt;return &lt;/span&gt;(&lt;span style=&quot;color: rgb(0, 0, 0);&quot;&gt;DruidPooledConnection&lt;/span&gt;) &lt;span style=&quot;color: rgb(0, 0, 0);&quot;&gt;throwsResult&lt;/span&gt;.result;&lt;br&gt;        } &lt;span style=&quot;color: rgb(0, 51, 179);&quot;&gt;else if &lt;/span&gt;(&lt;span style=&quot;color: rgb(0, 0, 0);&quot;&gt;throwsResult&lt;/span&gt;.state == &lt;span style=&quot;color: rgb(23, 80, 235);&quot;&gt;2&lt;/span&gt;) {&lt;br&gt;            &lt;span style=&quot;color: rgb(0, 51, 179);&quot;&gt;throw &lt;/span&gt;(&lt;span style=&quot;color: rgb(0, 0, 0);&quot;&gt;Throwable&lt;/span&gt;) &lt;span style=&quot;color: rgb(0, 0, 0);&quot;&gt;throwsResult&lt;/span&gt;.result;&lt;br&gt;        }&lt;br&gt;        &lt;span style=&quot;color: rgb(0, 51, 179);&quot;&gt;throw &lt;/span&gt;&lt;span style=&quot;color: rgb(0, 0, 0);&quot;&gt;throwable&lt;/span&gt;;&lt;br&gt;    }&lt;br&gt;}&lt;/pre&gt;&lt;/div&gt;" style="text;html=1;align=left;verticalAlign=middle;whiteSpace=wrap;rounded=0;" vertex="1" parent="1">
          <mxGeometry x="1030" y="470" width="60" height="30" as="geometry" />
        </mxCell>
        <mxCell id="p07UVuY639C_de6FHWED-25" value="&lt;font style=&quot;font-size: 24px;&quot;&gt;增强结果示例&lt;/font&gt;" style="text;html=1;align=center;verticalAlign=middle;whiteSpace=wrap;rounded=0;" vertex="1" parent="1">
          <mxGeometry x="1010" y="100" width="180" height="30" as="geometry" />
        </mxCell>
        <mxCell id="p07UVuY639C_de6FHWED-26" value="&lt;font style=&quot;&quot;&gt;&lt;div data-docx-has-block-data=&quot;false&quot; data-lark-html-role=&quot;root&quot; data-page-id=&quot;TTlydDfldovkhNxJR13crOVwn1b&quot;&gt;&lt;div class=&quot;ace-line ace-line old-record-id-H9IodGOqOoebHgxGfCrcjRnqnOh&quot;&gt;&lt;font style=&quot;font-size: 16px; color: rgb(0, 0, 255);&quot;&gt;探针增强的逻辑主要分两部分：&lt;/font&gt;&lt;/div&gt;&lt;div class=&quot;ace-line ace-line old-record-id-EE43deJfwogkKAxGyu9cy4XJnOb&quot;&gt;&lt;font style=&quot;font-size: 16px; color: rgb(0, 0, 255);&quot;&gt;1、构造需增强的类及方法的匹配器，后续ClassFileTransformer通过匹配器确认方法是否需要增强；&lt;/font&gt;&lt;/div&gt;&lt;div class=&quot;ace-line ace-line old-record-id-GSSYdch8lox9LBxbNXacxopTnMf&quot;&gt;&lt;font style=&quot;font-size: 16px; color: rgb(0, 0, 255);&quot;&gt;2、通过ClassFileTransformer将Messager相关方法通过字节码插入到目标方法中，插入的Messager类的核心方法有三个：&lt;/font&gt;&lt;/div&gt;&lt;ul class=&quot;list-bullet1&quot; start=&quot;1&quot;&gt;&lt;li data-list=&quot;bullet&quot; class=&quot;ace-line ace-line old-record-id-CKV0dfNuZodGYyx87VdcckLLnld&quot; style=&quot;text-align:left&quot;&gt;&lt;font style=&quot;font-size: 16px; color: rgb(0, 0, 255);&quot;&gt;invokeOnBefore：插入到目标方法体前，在业务方法体执行前处理，可实现修改入参、挡板或Mock、记录span等功能。&lt;/font&gt;&lt;/li&gt;&lt;li data-list=&quot;bullet&quot; class=&quot;ace-line ace-line old-record-id-Oan3ddNg9oEQV5xLuvscRlVVnGX&quot;&gt;&lt;font style=&quot;font-size: 16px; color: rgb(0, 0, 255);&quot;&gt;invokeOnReturn：插入到目标方法体return前，在业务方法体正常返回前处理，一般用于结束span，记录返回值。&lt;/font&gt;&lt;/li&gt;&lt;li data-list=&quot;bullet&quot; class=&quot;ace-line ace-line old-record-id-IKNddcb9RoaZP8xF65Fc8M1fnmb&quot;&gt;&lt;font style=&quot;font-size: 16px; color: rgb(0, 0, 255);&quot;&gt;invokeOnThrows：为目标方法体插入try-catch逻辑，在catch中调用，一般用于结束span，记录异常。&lt;/font&gt;&lt;/li&gt;&lt;/ul&gt;&lt;/div&gt;&lt;span class=&quot;lark-record-clipboard&quot; data-lark-record-format=&quot;docx/record&quot; data-lark-record-data=&quot;{&amp;quot;isCut&amp;quot;:false,&amp;quot;rootId&amp;quot;:&amp;quot;TTlydDfldovkhNxJR13crOVwn1b&amp;quot;,&amp;quot;parentId&amp;quot;:&amp;quot;TTlydDfldovkhNxJR13crOVwn1b&amp;quot;,&amp;quot;blockIds&amp;quot;:[7,6,5,4,9,10],&amp;quot;recordIds&amp;quot;:[&amp;quot;H9IodGOqOoebHgxGfCrcjRnqnOh&amp;quot;,&amp;quot;EE43deJfwogkKAxGyu9cy4XJnOb&amp;quot;,&amp;quot;GSSYdch8lox9LBxbNXacxopTnMf&amp;quot;,&amp;quot;CKV0dfNuZodGYyx87VdcckLLnld&amp;quot;,&amp;quot;Oan3ddNg9oEQV5xLuvscRlVVnGX&amp;quot;,&amp;quot;IKNddcb9RoaZP8xF65Fc8M1fnmb&amp;quot;],&amp;quot;recordMap&amp;quot;:{&amp;quot;CKV0dfNuZodGYyx87VdcckLLnld&amp;quot;:{&amp;quot;id&amp;quot;:&amp;quot;CKV0dfNuZodGYyx87VdcckLLnld&amp;quot;,&amp;quot;snapshot&amp;quot;:{&amp;quot;type&amp;quot;:&amp;quot;bullet&amp;quot;,&amp;quot;children&amp;quot;:[],&amp;quot;comments&amp;quot;:[],&amp;quot;revisions&amp;quot;:[],&amp;quot;author&amp;quot;:&amp;quot;7072915656148303900&amp;quot;,&amp;quot;text&amp;quot;:{&amp;quot;initialAttributedTexts&amp;quot;:{&amp;quot;text&amp;quot;:{&amp;quot;0&amp;quot;:&amp;quot;invokeOnBefore：插入到目标方法体前，在业务方法体执行前处理，可实现修改入参、挡板或Mock、记录span等功能。&amp;quot;},&amp;quot;attribs&amp;quot;:{&amp;quot;0&amp;quot;:&amp;quot;*0+1r&amp;quot;},&amp;quot;rows&amp;quot;:{},&amp;quot;cols&amp;quot;:{}},&amp;quot;apool&amp;quot;:{&amp;quot;numToAttrib&amp;quot;:{&amp;quot;0&amp;quot;:[&amp;quot;author&amp;quot;,&amp;quot;7072915656148303900&amp;quot;]},&amp;quot;nextNum&amp;quot;:1,&amp;quot;attribToNum&amp;quot;:{&amp;quot;author,7072915656148303900&amp;quot;:0}}},&amp;quot;level&amp;quot;:1,&amp;quot;folded&amp;quot;:false,&amp;quot;align&amp;quot;:&amp;quot;left&amp;quot;,&amp;quot;parent_id&amp;quot;:&amp;quot;TTlydDfldovkhNxJR13crOVwn1b&amp;quot;}},&amp;quot;GSSYdch8lox9LBxbNXacxopTnMf&amp;quot;:{&amp;quot;id&amp;quot;:&amp;quot;GSSYdch8lox9LBxbNXacxopTnMf&amp;quot;,&amp;quot;snapshot&amp;quot;:{&amp;quot;type&amp;quot;:&amp;quot;text&amp;quot;,&amp;quot;children&amp;quot;:[],&amp;quot;comments&amp;quot;:[],&amp;quot;revisions&amp;quot;:[],&amp;quot;author&amp;quot;:&amp;quot;7072915656148303900&amp;quot;,&amp;quot;text&amp;quot;:{&amp;quot;initialAttributedTexts&amp;quot;:{&amp;quot;text&amp;quot;:{&amp;quot;0&amp;quot;:&amp;quot;2、通过ClassFileTransformer将Messager相关方法通过字节码插入到目标方法中，插入的Messager类的核心方法有三个：&amp;quot;},&amp;quot;attribs&amp;quot;:{&amp;quot;0&amp;quot;:&amp;quot;*0+20&amp;quot;}},&amp;quot;apool&amp;quot;:{&amp;quot;numToAttrib&amp;quot;:{&amp;quot;0&amp;quot;:[&amp;quot;author&amp;quot;,&amp;quot;7072915656148303900&amp;quot;]},&amp;quot;nextNum&amp;quot;:1}},&amp;quot;folded&amp;quot;:false,&amp;quot;align&amp;quot;:&amp;quot;left&amp;quot;,&amp;quot;parent_id&amp;quot;:&amp;quot;TTlydDfldovkhNxJR13crOVwn1b&amp;quot;}},&amp;quot;EE43deJfwogkKAxGyu9cy4XJnOb&amp;quot;:{&amp;quot;id&amp;quot;:&amp;quot;EE43deJfwogkKAxGyu9cy4XJnOb&amp;quot;,&amp;quot;snapshot&amp;quot;:{&amp;quot;type&amp;quot;:&amp;quot;text&amp;quot;,&amp;quot;children&amp;quot;:[],&amp;quot;comments&amp;quot;:[],&amp;quot;revisions&amp;quot;:[],&amp;quot;author&amp;quot;:&amp;quot;7072915656148303900&amp;quot;,&amp;quot;text&amp;quot;:{&amp;quot;initialAttributedTexts&amp;quot;:{&amp;quot;text&amp;quot;:{&amp;quot;0&amp;quot;:&amp;quot;1、构造需增强的类及方法的匹配器，后续ClassFileTransformer通过匹配器确认方法是否需要增强；&amp;quot;},&amp;quot;attribs&amp;quot;:{&amp;quot;0&amp;quot;:&amp;quot;*0+1j&amp;quot;},&amp;quot;rows&amp;quot;:{},&amp;quot;cols&amp;quot;:{}},&amp;quot;apool&amp;quot;:{&amp;quot;numToAttrib&amp;quot;:{&amp;quot;0&amp;quot;:[&amp;quot;author&amp;quot;,&amp;quot;7072915656148303900&amp;quot;]},&amp;quot;nextNum&amp;quot;:1,&amp;quot;attribToNum&amp;quot;:{&amp;quot;author,7072915656148303900&amp;quot;:0}}},&amp;quot;folded&amp;quot;:false,&amp;quot;align&amp;quot;:&amp;quot;left&amp;quot;,&amp;quot;parent_id&amp;quot;:&amp;quot;TTlydDfldovkhNxJR13crOVwn1b&amp;quot;}},&amp;quot;H9IodGOqOoebHgxGfCrcjRnqnOh&amp;quot;:{&amp;quot;id&amp;quot;:&amp;quot;H9IodGOqOoebHgxGfCrcjRnqnOh&amp;quot;,&amp;quot;snapshot&amp;quot;:{&amp;quot;type&amp;quot;:&amp;quot;text&amp;quot;,&amp;quot;children&amp;quot;:[],&amp;quot;comments&amp;quot;:[],&amp;quot;revisions&amp;quot;:[],&amp;quot;author&amp;quot;:&amp;quot;7072915656148303900&amp;quot;,&amp;quot;text&amp;quot;:{&amp;quot;initialAttributedTexts&amp;quot;:{&amp;quot;text&amp;quot;:{&amp;quot;0&amp;quot;:&amp;quot;探针增强的逻辑主要分两部分：&amp;quot;},&amp;quot;attribs&amp;quot;:{&amp;quot;0&amp;quot;:&amp;quot;*0+e&amp;quot;}},&amp;quot;apool&amp;quot;:{&amp;quot;numToAttrib&amp;quot;:{&amp;quot;0&amp;quot;:[&amp;quot;author&amp;quot;,&amp;quot;7072915656148303900&amp;quot;]},&amp;quot;nextNum&amp;quot;:1}},&amp;quot;folded&amp;quot;:false,&amp;quot;align&amp;quot;:&amp;quot;left&amp;quot;,&amp;quot;parent_id&amp;quot;:&amp;quot;TTlydDfldovkhNxJR13crOVwn1b&amp;quot;}},&amp;quot;Oan3ddNg9oEQV5xLuvscRlVVnGX&amp;quot;:{&amp;quot;id&amp;quot;:&amp;quot;Oan3ddNg9oEQV5xLuvscRlVVnGX&amp;quot;,&amp;quot;snapshot&amp;quot;:{&amp;quot;parent_id&amp;quot;:&amp;quot;TTlydDfldovkhNxJR13crOVwn1b&amp;quot;,&amp;quot;type&amp;quot;:&amp;quot;bullet&amp;quot;,&amp;quot;children&amp;quot;:[],&amp;quot;comments&amp;quot;:[],&amp;quot;revisions&amp;quot;:[],&amp;quot;author&amp;quot;:&amp;quot;7072915656148303900&amp;quot;,&amp;quot;text&amp;quot;:{&amp;quot;initialAttributedTexts&amp;quot;:{&amp;quot;text&amp;quot;:{&amp;quot;0&amp;quot;:&amp;quot;invokeOnReturn：插入到目标方法体return前，在业务方法体正常返回前处理，一般用于结束span，记录返回值。&amp;quot;},&amp;quot;attribs&amp;quot;:{&amp;quot;0&amp;quot;:&amp;quot;*0+1q&amp;quot;},&amp;quot;rows&amp;quot;:{},&amp;quot;cols&amp;quot;:{}},&amp;quot;apool&amp;quot;:{&amp;quot;numToAttrib&amp;quot;:{&amp;quot;0&amp;quot;:[&amp;quot;author&amp;quot;,&amp;quot;7072915656148303900&amp;quot;]},&amp;quot;nextNum&amp;quot;:1,&amp;quot;attribToNum&amp;quot;:{&amp;quot;author,7072915656148303900&amp;quot;:0}}},&amp;quot;level&amp;quot;:1,&amp;quot;folded&amp;quot;:false}},&amp;quot;IKNddcb9RoaZP8xF65Fc8M1fnmb&amp;quot;:{&amp;quot;id&amp;quot;:&amp;quot;IKNddcb9RoaZP8xF65Fc8M1fnmb&amp;quot;,&amp;quot;snapshot&amp;quot;:{&amp;quot;parent_id&amp;quot;:&amp;quot;TTlydDfldovkhNxJR13crOVwn1b&amp;quot;,&amp;quot;type&amp;quot;:&amp;quot;bullet&amp;quot;,&amp;quot;children&amp;quot;:[],&amp;quot;comments&amp;quot;:[],&amp;quot;revisions&amp;quot;:[],&amp;quot;author&amp;quot;:&amp;quot;7072915656148303900&amp;quot;,&amp;quot;text&amp;quot;:{&amp;quot;initialAttributedTexts&amp;quot;:{&amp;quot;text&amp;quot;:{&amp;quot;0&amp;quot;:&amp;quot;invokeOnThrows：为目标方法体插入try-catch逻辑，在catch中调用，一般用于结束span，记录异常。&amp;quot;},&amp;quot;attribs&amp;quot;:{&amp;quot;0&amp;quot;:&amp;quot;*0+1p&amp;quot;}},&amp;quot;apool&amp;quot;:{&amp;quot;numToAttrib&amp;quot;:{&amp;quot;0&amp;quot;:[&amp;quot;author&amp;quot;,&amp;quot;7072915656148303900&amp;quot;]},&amp;quot;nextNum&amp;quot;:1}},&amp;quot;level&amp;quot;:1,&amp;quot;folded&amp;quot;:false}},&amp;quot;TTlydDfldovkhNxJR13crOVwn1b&amp;quot;:{&amp;quot;id&amp;quot;:&amp;quot;TTlydDfldovkhNxJR13crOVwn1b&amp;quot;,&amp;quot;snapshot&amp;quot;:{&amp;quot;type&amp;quot;:&amp;quot;page&amp;quot;,&amp;quot;parent_id&amp;quot;:&amp;quot;&amp;quot;,&amp;quot;comments&amp;quot;:null,&amp;quot;revisions&amp;quot;:null,&amp;quot;locked&amp;quot;:false,&amp;quot;hidden&amp;quot;:false,&amp;quot;author&amp;quot;:&amp;quot;7072915656148303900&amp;quot;,&amp;quot;children&amp;quot;:[&amp;quot;H9IodGOqOoebHgxGfCrcjRnqnOh&amp;quot;,&amp;quot;EE43deJfwogkKAxGyu9cy4XJnOb&amp;quot;,&amp;quot;GSSYdch8lox9LBxbNXacxopTnMf&amp;quot;,&amp;quot;CKV0dfNuZodGYyx87VdcckLLnld&amp;quot;,&amp;quot;Oan3ddNg9oEQV5xLuvscRlVVnGX&amp;quot;,&amp;quot;IKNddcb9RoaZP8xF65Fc8M1fnmb&amp;quot;],&amp;quot;text&amp;quot;:{&amp;quot;apool&amp;quot;:{&amp;quot;numToAttrib&amp;quot;:{},&amp;quot;nextNum&amp;quot;:0,&amp;quot;attribToNum&amp;quot;:{}},&amp;quot;initialAttributedTexts&amp;quot;:{&amp;quot;text&amp;quot;:{&amp;quot;0&amp;quot;:&amp;quot;&amp;quot;},&amp;quot;attribs&amp;quot;:{&amp;quot;0&amp;quot;:&amp;quot;&amp;quot;},&amp;quot;rows&amp;quot;:{},&amp;quot;cols&amp;quot;:{}}},&amp;quot;align&amp;quot;:&amp;quot;&amp;quot;,&amp;quot;doc_info&amp;quot;:{&amp;quot;editors&amp;quot;:[&amp;quot;7072915656148303900&amp;quot;],&amp;quot;options&amp;quot;:[&amp;quot;editors&amp;quot;,&amp;quot;edit_time&amp;quot;],&amp;quot;deleted_editors&amp;quot;:null,&amp;quot;option_modified&amp;quot;:null}}}},&amp;quot;payloadMap&amp;quot;:{&amp;quot;H9IodGOqOoebHgxGfCrcjRnqnOh&amp;quot;:{&amp;quot;level&amp;quot;:1},&amp;quot;EE43deJfwogkKAxGyu9cy4XJnOb&amp;quot;:{&amp;quot;level&amp;quot;:1},&amp;quot;GSSYdch8lox9LBxbNXacxopTnMf&amp;quot;:{&amp;quot;level&amp;quot;:1}},&amp;quot;extra&amp;quot;:{&amp;quot;channel&amp;quot;:&amp;quot;saas&amp;quot;,&amp;quot;pasteRandomId&amp;quot;:&amp;quot;db650b54-001b-4030-8786-6dd4ca1b5823&amp;quot;,&amp;quot;mention_page_title&amp;quot;:{},&amp;quot;external_mention_url&amp;quot;:{},&amp;quot;isEqualBlockSelection&amp;quot;:true},&amp;quot;isKeepQuoteContainer&amp;quot;:false,&amp;quot;selection&amp;quot;:[{&amp;quot;id&amp;quot;:7,&amp;quot;type&amp;quot;:&amp;quot;text&amp;quot;,&amp;quot;selection&amp;quot;:{&amp;quot;start&amp;quot;:0,&amp;quot;end&amp;quot;:14},&amp;quot;recordId&amp;quot;:&amp;quot;H9IodGOqOoebHgxGfCrcjRnqnOh&amp;quot;},{&amp;quot;id&amp;quot;:6,&amp;quot;type&amp;quot;:&amp;quot;text&amp;quot;,&amp;quot;selection&amp;quot;:{&amp;quot;start&amp;quot;:0,&amp;quot;end&amp;quot;:55},&amp;quot;recordId&amp;quot;:&amp;quot;EE43deJfwogkKAxGyu9cy4XJnOb&amp;quot;},{&amp;quot;id&amp;quot;:5,&amp;quot;type&amp;quot;:&amp;quot;text&amp;quot;,&amp;quot;selection&amp;quot;:{&amp;quot;start&amp;quot;:0,&amp;quot;end&amp;quot;:72},&amp;quot;recordId&amp;quot;:&amp;quot;GSSYdch8lox9LBxbNXacxopTnMf&amp;quot;},{&amp;quot;id&amp;quot;:4,&amp;quot;type&amp;quot;:&amp;quot;text&amp;quot;,&amp;quot;selection&amp;quot;:{&amp;quot;start&amp;quot;:0,&amp;quot;end&amp;quot;:63},&amp;quot;recordId&amp;quot;:&amp;quot;CKV0dfNuZodGYyx87VdcckLLnld&amp;quot;},{&amp;quot;id&amp;quot;:9,&amp;quot;type&amp;quot;:&amp;quot;text&amp;quot;,&amp;quot;selection&amp;quot;:{&amp;quot;start&amp;quot;:0,&amp;quot;end&amp;quot;:62},&amp;quot;recordId&amp;quot;:&amp;quot;Oan3ddNg9oEQV5xLuvscRlVVnGX&amp;quot;},{&amp;quot;id&amp;quot;:10,&amp;quot;type&amp;quot;:&amp;quot;text&amp;quot;,&amp;quot;selection&amp;quot;:{&amp;quot;start&amp;quot;:0,&amp;quot;end&amp;quot;:61},&amp;quot;recordId&amp;quot;:&amp;quot;IKNddcb9RoaZP8xF65Fc8M1fnmb&amp;quot;}],&amp;quot;pasteFlag&amp;quot;:&amp;quot;44af021d-f2dd-41d2-b163-6623408ccd70&amp;quot;}&quot;&gt;&lt;/span&gt;&lt;/font&gt;" style="text;html=1;align=left;verticalAlign=middle;whiteSpace=wrap;rounded=0;" vertex="1" parent="1">
          <mxGeometry x="590" y="834" width="840" height="235" as="geometry" />
        </mxCell>
      </root>
    </mxGraphModel>
  </diagram>
</mxfile>
